<svg width="37" height="26" viewBox="0 0 37 26" fill="none" xmlns="http://www.w3.org/2000/svg">
<g clip-path="url(#clip0_2001_501)">
<path d="M35.69 3.99651C35.2708 2.42331 34.0358 1.18449 32.4673 0.76405C29.6247 -4.95911e-05 18.2259 -4.95911e-05 18.2259 -4.95911e-05C18.2259 -4.95911e-05 6.82711 -4.95911e-05 3.98441 0.76405C2.41609 1.18449 1.18086 2.42331 0.761703 3.99651C0 6.8478 0 12.7969 0 12.7969C0 12.7969 0 18.7458 0.761703 21.5974C1.18086 23.1704 2.41609 24.4092 3.98441 24.8298C6.82711 25.5938 18.2259 25.5938 18.2259 25.5938C18.2259 25.5938 29.6247 25.5938 32.4673 24.8298C34.0358 24.4092 35.2708 23.1704 35.69 21.5974C36.4518 18.7458 36.4518 12.7969 36.4518 12.7969C36.4518 12.7969 36.4518 6.8478 35.69 3.99651Z" fill="#ED1D24"/>
<path d="M14.498 18.1982L24.0252 12.7972L14.498 7.3957V18.1982Z" fill="white"/>
</g>
<defs>
<clipPath id="clip0_2001_501">
<rect width="36.4518" height="25.5938" fill="white"/>
</clipPath>
</defs>
</svg>
