<svg width="37" height="37" viewBox="0 0 37 37" fill="none" xmlns="http://www.w3.org/2000/svg">
<g clip-path="url(#clip0_2001_482)">
<path d="M28.8452 16.1886C23.0588 12.7522 13.5142 12.4363 7.99032 14.1128C7.10324 14.382 6.16516 13.8811 5.89646 12.9942C5.62759 12.1066 6.12782 11.1692 7.01557 10.8995C13.3566 8.9748 23.8976 9.3465 30.559 13.3008C31.3568 13.7745 31.6186 14.8049 31.1457 15.6015C30.6724 16.3993 29.6411 16.6623 28.8452 16.1886ZM28.6557 21.2784C28.2497 21.9371 27.3884 22.1438 26.7305 21.7392C21.9064 18.7739 14.5503 17.9149 8.84298 19.6473C8.10286 19.871 7.32111 19.4536 7.09629 18.7149C6.87329 17.9748 7.2908 17.1945 8.02959 16.9694C14.5494 14.991 22.6545 15.9493 28.1952 19.3542C28.8531 19.7594 29.0602 20.6211 28.6557 21.2784ZM26.4591 26.1664C26.1365 26.6955 25.4478 26.8612 24.9207 26.5387C20.7053 23.9624 15.3994 23.3806 9.15086 24.8078C8.54873 24.9458 7.94861 24.5685 7.81129 23.9664C7.67337 23.3645 8.04927 22.7643 8.65273 22.6269C15.4907 21.0637 21.3564 21.7365 26.0879 24.6277C26.6154 24.9499 26.7815 25.6391 26.4591 26.1664ZM18.2266 0.274601C8.31252 0.274601 0.275391 8.31157 0.275391 18.2254C0.275391 28.1405 8.31252 36.1768 18.2266 36.1768C28.1408 36.1768 36.1775 28.1405 36.1775 18.2254C36.1775 8.31157 28.1408 0.274601 18.2266 0.274601Z" fill="#1ED760"/>
</g>
<defs>
<clipPath id="clip0_2001_482">
<rect width="36.4518" height="36.4518" fill="white"/>
</clipPath>
</defs>
</svg>
