<svg enable-background="new 0 0 300 55" viewBox="0 0 300 55" xmlns="http://www.w3.org/2000/svg"><path d="m17.6 55c-2.9 0-5.5-.4-7.7-1.3s-4-2-5.5-3.4-2.6-3-3.3-4.8c-.7-1.9-1.1-3.7-1.1-5.5v-24.9c0-1.8.4-3.7 1.1-5.5s1.8-3.4 3.3-4.8 3.3-2.5 5.5-3.4c2.2-1 4.7-1.4 7.7-1.4 2.9 0 5.5.4 7.7 1.3s4 2 5.5 3.4 2.6 3 3.3 4.8 1.1 3.7 1.1 5.5v25c0 1.8-.4 3.6-1.1 5.4s-1.8 3.4-3.3 4.8-3.3 2.6-5.5 3.4c-2.2 1-4.8 1.4-7.7 1.4zm0-10.2c1.4 0 2.7-.4 4-1.2 1.2-.8 1.9-2 1.9-3.6v-24.8c0-1.6-.6-2.9-1.9-3.7s-2.6-1.2-4-1.2-2.7.4-4 1.2-1.9 2-1.9 3.7v24.9c0 1.6.6 2.8 1.9 3.6 1.2.7 2.6 1.1 4 1.1z"/><path d="m46 54.4c-1 0-1.9-.4-2.6-1.1s-1-1.6-1-2.8v-46c0-1.1.3-2 1-2.7s1.6-1.1 2.6-1.1h14.3c2.9 0 5.5.5 7.8 1.4s4.2 2.1 5.8 3.7c1.6 1.5 2.8 3.3 3.6 5.2.8 2 1.2 4 1.2 6v21c0 2.3-.4 4.5-1.2 6.5s-2 3.8-3.6 5.2c-1.6 1.5-3.5 2.6-5.8 3.5s-4.9 1.3-7.8 1.3h-14.3zm14.3-10.6c.7 0 1.5-.1 2.3-.3s1.6-.5 2.3-1 1.3-1.1 1.7-1.9.6-1.8.6-3v-18.8c0-2.6-.6-4.4-1.7-5.6-1.2-1.2-2.9-1.8-5.2-1.8h-6.3v32.5h6.3z"/><path d="m89.7 54.4c-1 0-1.9-.4-2.6-1.1s-1-1.6-1-2.8v-46c0-1.1.3-2 1-2.7s1.5-1.1 2.6-1.1h14.3c2.9 0 5.5.5 7.8 1.4s4.2 2.1 5.8 3.7c1.6 1.5 2.8 3.3 3.6 5.2.8 2 1.2 4 1.2 6v21c0 2.3-.4 4.5-1.2 6.5s-2 3.8-3.6 5.2c-1.6 1.5-3.5 2.6-5.8 3.5s-4.9 1.3-7.8 1.3h-14.3zm14.2-10.6c.7 0 1.5-.1 2.3-.3s1.6-.5 2.3-1 1.3-1.1 1.7-1.9.6-1.8.6-3v-18.8c0-2.6-.6-4.4-1.7-5.6-1.2-1.2-2.9-1.8-5.2-1.8h-6.3v32.5h6.3z"/><path d="m198.3 55c-2.9 0-5.5-.4-7.7-1.3s-4-2-5.5-3.4-2.6-3-3.3-4.8-1.1-3.6-1.1-5.4v-25c0-1.8.4-3.7 1.1-5.5s1.8-3.4 3.3-4.8 3.3-2.5 5.5-3.4 4.8-1.3 7.7-1.3 5.5.4 7.7 1.3 4 2 5.5 3.4 2.6 3 3.3 4.8 1.1 3.7 1.1 5.5v24.9c0 1.8-.4 3.6-1.1 5.4s-1.8 3.4-3.3 4.8-3.3 2.6-5.5 3.4c-2.2 1-4.8 1.4-7.7 1.4zm0-10.2c1.4 0 2.7-.4 4-1.2 1.2-.8 1.9-2 1.9-3.6v-24.8c0-1.6-.6-2.9-1.9-3.7-1.2-.8-2.6-1.2-4-1.2s-2.7.4-4 1.2-1.9 2-1.9 3.7v24.9c0 1.6.6 2.8 1.9 3.6 1.2.7 2.6 1.1 4 1.1z"/><path d="m241.2 55c-2.9 0-5.5-.4-7.7-1.3s-4.1-2-5.6-3.4-2.7-3-3.5-4.8-1.2-3.6-1.2-5.4v-35.6c0-1.1.3-2 1-2.7s1.5-1.1 2.6-1.1h4.4c1 0 1.9.4 2.6 1.1s1 1.6 1 2.7v35c0 1 .2 1.9.6 2.6s.9 1.3 1.6 1.6c.6.4 1.3.7 2.1.9s1.5.3 2.2.3 1.5-.1 2.2-.3 1.5-.5 2.1-.9 1.2-.9 1.6-1.6.6-1.6.6-2.6v-35c0-1.1.3-2 1-2.7s1.5-1.1 2.6-1.1h4.4c1 0 1.9.4 2.6 1.1s1 1.6 1 2.7v35.5c0 1.8-.4 3.6-1.2 5.4s-2 3.4-3.5 4.8-3.4 2.6-5.6 3.4c-2.4 1-5 1.4-7.9 1.4z"/><path d="m296.2.7c1.1 0 2 .3 2.7 1s1.1 1.6 1.1 2.7v3.2c0 1.1-.4 2-1.1 2.7s-1.6 1.1-2.7 1.1h-8v39.3c0 1.2-.3 2.1-1 2.7-.7.7-1.6 1-2.7 1h-4.3c-1 0-1.9-.3-2.6-1s-1-1.6-1-2.7v-39.3h-7.9c-1.1 0-2-.4-2.7-1.1s-1.1-1.6-1.1-2.7v-3.2c0-1.1.3-2 1.1-2.7.7-.7 1.6-1 2.7-1z"/><circle cx="151.1" cy="28.7" r="24.3"/><path d="m148.3 15.1c.1-.1.3-.2.5-.3s.5-.1.9-.1h3.8c.5 0 1 .2 1.3.5.3.4.5.8.5 1.4v24c0 .6-.2 1.1-.5 1.5s-.8.5-1.3.5h-2.3c-.5 0-1-.2-1.3-.5-.4-.4-.5-.8-.5-1.5v-18.4h-.7l-4.5 3.8c-.4.3-.9.4-1.4.4-.4 0-.7-.1-1-.3s-.5-.5-.5-1v-3.6c0-.5.1-.9.4-1.1.2-.3.5-.5.9-.8l.4-.3z" fill="#fff"/></svg>