<svg width="1271" height="225" viewBox="0 0 1271 225" fill="none" xmlns="http://www.w3.org/2000/svg">
<path d="M205.013 112.448C205.013 136.32 200.488 156.629 191.438 173.375C182.459 190.121 170.203 202.912 154.668 211.748C139.205 220.513 121.818 224.895 102.506 224.895C83.0525 224.895 65.5939 220.477 50.1306 211.641C34.6673 202.805 22.4463 190.014 13.4676 173.268C4.4889 156.522 -0.00044379 136.248 -0.00044379 112.448C-0.00044379 88.5759 4.4889 68.2669 13.4676 51.521C22.4463 34.775 34.6673 22.0195 50.1306 13.2546C65.5939 4.41844 83.0525 0.000346959 102.506 0.000346959C121.818 0.000346959 139.205 4.41844 154.668 13.2546C170.203 22.0195 182.459 34.775 191.438 51.521C200.488 68.2669 205.013 88.5759 205.013 112.448ZM158.089 112.448C158.089 96.9845 155.773 83.944 151.141 73.3263C146.58 62.7087 140.131 54.6564 131.794 49.1694C123.457 43.6824 113.694 40.9389 102.506 40.9389C91.3186 40.9389 81.556 43.6824 73.2187 49.1694C64.8813 54.6564 58.3967 62.7087 53.7648 73.3263C49.2042 83.944 46.9239 96.9845 46.9239 112.448C46.9239 127.911 49.2042 140.952 53.7648 151.569C58.3967 162.187 64.8813 170.239 73.2187 175.726C81.556 181.213 91.3186 183.957 102.506 183.957C113.694 183.957 123.457 181.213 131.794 175.726C140.131 170.239 146.58 162.187 151.141 151.569C155.773 140.952 158.089 127.911 158.089 112.448ZM286.799 221.902H209.198V2.99325H287.441C309.46 2.99325 328.415 7.37571 344.306 16.1406C360.197 24.8343 372.418 37.3403 380.969 53.6587C389.591 69.9772 393.902 89.5022 393.902 112.234C393.902 135.037 389.591 154.633 380.969 171.023C372.418 187.413 360.125 199.99 344.092 208.755C328.13 217.52 309.032 221.902 286.799 221.902ZM255.481 182.246H284.875C298.557 182.246 310.066 179.824 319.401 174.978C328.807 170.061 335.861 162.472 340.565 152.211C345.339 141.878 347.726 128.552 347.726 112.234C347.726 96.0581 345.339 82.8395 340.565 72.5781C335.861 62.3168 328.842 54.7633 319.507 49.9176C310.172 45.072 298.664 42.6491 284.982 42.6491H255.481V182.246ZM475.689 221.902H398.087V2.99325H476.33C498.349 2.99325 517.304 7.37571 533.195 16.1406C549.086 24.8343 561.307 37.3403 569.858 53.6587C578.48 69.9772 582.792 89.5022 582.792 112.234C582.792 135.037 578.48 154.633 569.858 171.023C561.307 187.413 549.015 199.99 532.981 208.755C517.019 217.52 497.922 221.902 475.689 221.902ZM444.37 182.246H473.765C487.446 182.246 498.955 179.824 508.29 174.978C517.696 170.061 524.751 162.472 529.454 152.211C534.228 141.878 536.615 128.552 536.615 112.234C536.615 96.0581 534.228 82.8395 529.454 72.5781C524.751 62.3168 517.732 54.7633 508.397 49.9176C499.062 45.072 487.553 42.6491 473.871 42.6491H444.37V182.246ZM680.932 2.99325V221.902H634.649V46.9247H633.366L583.235 78.3501V37.3047L637.428 2.99325H680.932ZM905.308 112.448C905.308 136.32 900.783 156.629 891.733 173.375C882.755 190.121 870.498 202.912 854.964 211.748C839.5 220.513 822.113 224.895 802.802 224.895C783.348 224.895 765.889 220.477 750.426 211.641C734.963 202.805 722.742 190.014 713.763 173.268C704.784 156.522 700.295 136.248 700.295 112.448C700.295 88.5759 704.784 68.2669 713.763 51.521C722.742 34.775 734.963 22.0195 750.426 13.2546C765.889 4.41844 783.348 0.000346959 802.802 0.000346959C822.113 0.000346959 839.5 4.41844 854.964 13.2546C870.498 22.0195 882.755 34.775 891.733 51.521C900.783 68.2669 905.308 88.5759 905.308 112.448ZM858.384 112.448C858.384 96.9845 856.068 83.944 851.436 73.3263C846.876 62.7087 840.427 54.6564 832.089 49.1694C823.752 43.6824 813.989 40.9389 802.802 40.9389C791.614 40.9389 781.851 43.6824 773.514 49.1694C765.177 54.6564 758.692 62.7087 754.06 73.3263C749.5 83.944 747.219 96.9845 747.219 112.448C747.219 127.911 749.5 140.952 754.06 151.569C758.692 162.187 765.177 170.239 773.514 175.726C781.851 181.213 791.614 183.957 802.802 183.957C813.989 183.957 823.752 181.213 832.089 175.726C840.427 170.239 846.876 162.187 851.436 151.569C856.068 140.952 858.384 127.911 858.384 112.448ZM1044.71 2.99325H1090.99V145.156C1090.99 161.118 1087.18 175.085 1079.55 187.056C1072 199.028 1061.42 208.363 1047.81 215.061C1034.2 221.689 1018.34 225.002 1000.24 225.002C982.071 225.002 966.18 221.689 952.569 215.061C938.959 208.363 928.377 199.028 920.823 187.056C913.27 175.085 909.493 161.118 909.493 145.156V2.99325H955.776V141.201C955.776 149.538 957.593 156.949 961.227 163.434C964.933 169.919 970.135 175.014 976.833 178.719C983.532 182.425 991.335 184.277 1000.24 184.277C1009.22 184.277 1017.02 182.425 1023.65 178.719C1030.35 175.014 1035.52 169.919 1039.15 163.434C1042.86 156.949 1044.71 149.538 1044.71 141.201V2.99325ZM1090.63 41.1527V2.99325H1270.42V41.1527H1203.4V221.902H1157.65V41.1527H1090.63Z" fill="white"/>
</svg>
